<?xml version="1.0" standalone="no"?>
<!DOCTYPE svg PUBLIC "-//W3C//DTD SVG 1.1//EN" "http://www.w3.org/Graphics/SVG/1.1/DTD/svg11.dtd" >
<svg xmlns="http://www.w3.org/2000/svg">
<metadata></metadata>
<defs>
<font id="niveau_grotesk_regularregular" horiz-adv-x="1064" >
<font-face units-per-em="2048" ascent="1536" descent="-512" />
<missing-glyph horiz-adv-x="479" />
<glyph unicode="&#xfb01;" horiz-adv-x="1159" d="M51 850v147h156v125q0 148 83.5 230t229.5 82q66 0 119 -17v-174q-46 23 -115 23q-72 0 -109.5 -40.5t-37.5 -113.5v-115h250v-147h-250v-850h-170v850h-156zM821 1311q0 47 32.5 79.5t78.5 32.5q50 0 82.5 -32t32.5 -80t-32 -79.5t-83 -31.5q-46 0 -78.5 32t-32.5 79z M848 0v997h170v-997h-170z" />
<glyph unicode="&#xfb02;" horiz-adv-x="1155" d="M51 850v147h156v125q0 148 83.5 230t229.5 82q66 0 119 -17v-174q-46 23 -115 23q-72 0 -109.5 -40.5t-37.5 -113.5v-115h250v-147h-250v-850h-170v850h-156zM840 0v1413h170v-1413h-170z" />
<glyph horiz-adv-x="0" />
<glyph horiz-adv-x="682" />
<glyph unicode=" "  horiz-adv-x="479" />
<glyph unicode="&#x09;" horiz-adv-x="479" />
<glyph unicode="&#xa0;" horiz-adv-x="479" />
<glyph unicode="!" horiz-adv-x="512" d="M125 109q0 57 36.5 94t92.5 37q57 0 94 -37t37 -94q0 -56 -37 -92.5t-94 -36.5q-56 0 -92.5 37t-36.5 92zM160 1393h192l-33 -953h-126z" />
<glyph unicode="&#x22;" horiz-adv-x="765" d="M121 1393h176l-8 -441h-160zM467 1393h176l-8 -441h-160z" />
<glyph unicode="#" horiz-adv-x="1341" d="M82 397v107h227l113 379h-279v106h310l120 404h127l-120 -404h352l121 404h127l-121 -404h201v-106h-234l-113 -379h285v-107h-315l-119 -397h-125l117 397h-353l-118 -397h-125l116 397h-194zM434 504h354l113 379h-354z" />
<glyph unicode="$" horiz-adv-x="970" d="M96 1049q0 63 20.5 121t61.5 108.5t112.5 85.5t164.5 45v184h82v-180q168 -3 294 -76v-198q-137 105 -294 108v-456l118 -74q127 -81 181.5 -165t54.5 -194q0 -141 -91.5 -245.5t-262.5 -126.5v-226h-82v220h-4q-180 0 -342 83v207q152 -125 337 -125h9v471l-142 91 q-117 72 -167 153.5t-50 188.5zM285 1053q0 -104 129 -185l41 -26v397q-81 -15 -125.5 -64t-44.5 -122zM537 156q80 20 124 73t44 121q0 111 -152 205l-16 10v-409z" />
<glyph unicode="%" horiz-adv-x="1703" d="M84 860v270q0 123 85 203t214 80t214 -80t85 -203v-270q0 -123 -85 -204t-214 -81t-214 81t-85 204zM215 864q0 -70 45.5 -114.5t122.5 -44.5t122.5 44.5t45.5 114.5v262q0 70 -45.5 115t-122.5 45t-122.5 -45t-45.5 -115v-262zM477 0l619 1393h135l-621 -1393h-133z M1024 264v271q0 123 84.5 202.5t212.5 79.5q129 0 214 -79.5t85 -202.5v-271q0 -123 -85 -203.5t-214 -80.5q-128 0 -212.5 80.5t-84.5 203.5zM1155 266q0 -69 45.5 -114.5t120.5 -45.5q76 0 122 45.5t46 114.5v264q0 69 -46 114.5t-122 45.5q-75 0 -120.5 -45.5 t-45.5 -114.5v-264z" />
<glyph unicode="&#x26;" horiz-adv-x="1388" d="M72 387q0 76 21 140.5t53.5 110t83.5 86t97.5 66.5t108.5 54l-10 12q-117 147 -117 256q0 126 92.5 213.5t235.5 87.5q145 0 229 -89.5t84 -213.5q0 -62 -20.5 -112.5t-61 -89.5t-83.5 -66.5t-105 -57.5l274 -329l334 376v-239l-229 -264l272 -328h-215l-164 203 q-219 -223 -444 -223q-87 0 -160.5 24.5t-123.5 64.5t-85 93.5t-51 110t-16 114.5zM248 395q0 -95 70.5 -173.5t189.5 -78.5q159 0 340 189l-313 389q-66 -30 -110.5 -57t-88.5 -66t-66 -89.5t-22 -113.5zM477 1104q0 -29 17 -66t33 -60.5t44 -59.5l9 -13q100 44 152 89 t52 110q0 61 -38.5 107t-106.5 46q-73 0 -117.5 -43t-44.5 -110z" />
<glyph unicode="'" horiz-adv-x="417" d="M121 1368h176l-8 -416h-160z" />
<glyph unicode="(" horiz-adv-x="524" d="M80 496q0 260 85 503.5t222 415.5l98 -67q-262 -355 -262 -852q0 -495 262 -850l-98 -68q-137 172 -222 415.5t-85 502.5z" />
<glyph unicode=")" horiz-adv-x="524" d="M39 -354q262 355 262 852q0 495 -262 850l98 67q137 -172 222 -415t85 -502q0 -260 -85 -504t-222 -416z" />
<glyph unicode="*" horiz-adv-x="745" d="M109 1012l194 112l-194 113l34 61l197 -110v225h72v-225l192 112l37 -63l-195 -113l195 -110l-37 -62l-192 111v-221h-72v219l-195 -111z" />
<glyph unicode="+" d="M76 518v135h381v391h145v-391h385v-135h-385v-391h-145v391h-381z" />
<glyph unicode="," horiz-adv-x="512" d="M119 -266l63 491h195l-103 -491h-155z" />
<glyph unicode="-" horiz-adv-x="770" d="M125 504v160h518v-160h-518z" />
<glyph unicode="." horiz-adv-x="483" d="M111 109q0 57 37 94t94 37q56 0 93.5 -37t37.5 -94q0 -55 -37.5 -92t-93.5 -37q-57 0 -94 36.5t-37 92.5z" />
<glyph unicode="/" horiz-adv-x="864" d="M55 0l619 1393h135l-621 -1393h-133z" />
<glyph unicode="0" horiz-adv-x="1198" d="M129 453v489q0 203 133.5 337t335.5 134q204 0 337.5 -134t133.5 -337v-489q0 -204 -133.5 -338.5t-337.5 -134.5q-202 0 -335.5 134.5t-133.5 338.5zM305 457q0 -133 80 -219t213 -86q134 0 214.5 86t80.5 219v479q0 133 -80.5 219t-214.5 86q-133 0 -213 -86t-80 -219 v-479z" />
<glyph unicode="1" horiz-adv-x="937" d="M78 0v168h350v1057h-313v168h489v-1225h297v-168h-823z" />
<glyph unicode="2" horiz-adv-x="944" d="M86 0v156l430 542q70 89 105.5 159.5t35.5 148.5q0 106 -64 168.5t-171 62.5q-176 0 -307 -141v204q59 51 143.5 82t173.5 31q191 0 298.5 -107t107.5 -274q0 -67 -13 -124.5t-40.5 -110.5t-50.5 -87.5t-64 -86.5l-361 -455h529v-168h-752z" />
<glyph unicode="3" horiz-adv-x="952" d="M111 51v201q122 -96 290 -96q116 0 193.5 67.5t77.5 175.5q0 105 -72 174.5t-182 69.5h-205v168h203q93 0 155 61t62 152q0 97 -64.5 155t-171.5 58q-76 0 -148 -22t-122 -60v193q111 65 276 65q184 0 298 -104.5t114 -264.5q0 -113 -51.5 -196.5t-134.5 -118.5 q102 -38 163.5 -131t61.5 -219q0 -176 -126 -287.5t-318 -111.5q-175 0 -299 71z" />
<glyph unicode="4" horiz-adv-x="1116" d="M47 301v152l637 940h176v-924h189v-168h-189v-301h-176v301h-637zM238 469h446v664z" />
<glyph unicode="5" horiz-adv-x="1007" d="M88 86v219q156 -149 338 -149q126 0 211.5 78t85.5 204q0 132 -96.5 199.5t-251.5 67.5h-187l74 688h627v-168h-469l-45 -357h45q221 0 353 -116.5t132 -313.5q0 -110 -37 -198t-102 -144.5t-149.5 -86t-182.5 -29.5q-188 0 -346 106z" />
<glyph unicode="6" horiz-adv-x="1124" d="M82 465q0 157 94 299l412 629h211l-307 -461q33 8 75 8q132 0 242.5 -58.5t177 -168t66.5 -248.5q0 -136 -64 -247.5t-175.5 -174.5t-246.5 -63q-206 0 -345.5 139t-139.5 346zM262 465q0 -131 88 -220t217 -89q130 0 217.5 89t87.5 220q0 130 -87.5 219.5t-217.5 89.5 q-129 0 -217 -90t-88 -219z" />
<glyph unicode="7" horiz-adv-x="845" d="M66 1225v168h743v-152l-487 -1241h-201l497 1225h-552z" />
<glyph unicode="8" horiz-adv-x="1077" d="M96 393q0 119 61.5 211t166.5 139q-83 42 -132 121t-49 178q0 157 114.5 264t279.5 107q168 0 282.5 -106.5t114.5 -264.5q0 -99 -49 -178t-133 -121q105 -47 167 -139t62 -211q0 -178 -127 -295.5t-317 -117.5q-187 0 -314 117.5t-127 295.5zM266 395 q0 -107 78.5 -181.5t192.5 -74.5q116 0 195 74t79 182t-77.5 185t-196.5 77q-114 0 -192.5 -76.5t-78.5 -185.5zM311 1040q0 -91 64 -153t164 -62q98 0 162.5 62t64.5 153q0 92 -64.5 152.5t-162.5 60.5t-163 -60.5t-65 -152.5z" />
<glyph unicode="9" horiz-adv-x="1122" d="M70 928q0 207 139.5 346t345.5 139t345.5 -139t139.5 -346q0 -155 -92 -299l-413 -629h-211l305 449q-31 -5 -74 -5q-132 0 -242.5 61t-176.5 172.5t-66 250.5zM250 928q0 -130 87.5 -220t217.5 -90q129 0 217 90.5t88 219.5q0 131 -88 220t-217 89q-130 0 -217.5 -89 t-87.5 -220z" />
<glyph unicode=":" horiz-adv-x="487" d="M123 100q0 53 34.5 88t86.5 35t86.5 -35t34.5 -88q0 -52 -34 -86t-87 -34t-87 34t-34 86zM123 868q0 54 34 88.5t87 34.5t87 -34.5t34 -88.5q0 -52 -34 -86t-87 -34t-87 34t-34 86z" />
<glyph unicode=";" horiz-adv-x="522" d="M109 -264l63 469h178l-98 -469h-143zM158 868q0 54 34 88.5t87 34.5t87.5 -34.5t34.5 -88.5q0 -52 -34.5 -86t-87.5 -34t-87 34t-34 86z" />
<glyph unicode="&#x3c;" d="M51 516v135l912 359v-144l-740 -282l740 -283v-143z" />
<glyph unicode="=" d="M76 279v135h911v-135h-911zM76 756v135h911v-135h-911z" />
<glyph unicode="&#x3e;" d="M100 158v143l740 283l-740 282v144l912 -359v-135z" />
<glyph unicode="?" horiz-adv-x="870" d="M82 1124v215q127 74 291 74q110 0 194 -32t132 -85.5t72 -117t24 -134.5q0 -98 -33.5 -169t-99.5 -134l-115 -106q-46 -43 -69 -87t-23 -108h-176q0 102 28 160t99 121l114 104q53 47 72.5 95t19.5 112q0 89 -62.5 147t-191.5 58q-68 0 -145 -31t-131 -82zM236 109 q0 57 36.5 94t92.5 37q57 0 94 -37t37 -94q0 -56 -37 -92.5t-94 -36.5q-55 0 -92 37t-37 92z" />
<glyph unicode="@" horiz-adv-x="1667" d="M98 553q0 213 96.5 384t267.5 267t384 96q159 0 298.5 -54t237.5 -146.5t154.5 -219.5t56.5 -268q0 -196 -87 -303.5t-210 -107.5q-76 0 -128 36.5t-76 102.5q-44 -67 -115 -105t-160 -38q-149 0 -246.5 103t-97.5 255q0 153 97 255.5t247 102.5q161 0 256 -116v94h101 v-424q0 -166 129 -166q77 0 130.5 78t53.5 231q0 158 -82.5 293.5t-230.5 217t-328 81.5q-181 0 -327.5 -85t-229 -233.5t-82.5 -330.5t82.5 -330.5t229 -233.5t327.5 -85q249 0 426 153l61 -75q-202 -177 -487 -177q-213 0 -384 96.5t-267.5 267.5t-96.5 384zM578 555 q0 -109 70 -184.5t177 -75.5t176.5 75.5t69.5 184.5t-69.5 183.5t-176.5 74.5t-177 -74.5t-70 -183.5z" />
<glyph unicode="A" horiz-adv-x="1292" d="M23 0l524 1393h198l525 -1393h-199l-145 389h-564l-141 -389h-198zM422 559h446l-223 602z" />
<glyph unicode="B" horiz-adv-x="1146" d="M180 0v1393h414q180 0 298 -99t118 -262q0 -114 -52.5 -193.5t-144.5 -119.5q110 -40 176 -127.5t66 -212.5q0 -175 -125 -277t-318 -102h-432zM356 168h256q112 0 185 57.5t73 171.5t-73.5 175t-184.5 61h-256v-465zM356 799h236q102 0 168.5 54t66.5 159t-66.5 159 t-168.5 54h-236v-426z" />
<glyph unicode="C" horiz-adv-x="1265" d="M86 696q0 151 55 284t150 228t228 150t284 55q202 0 366 -96v-207q-152 129 -366 129q-149 0 -271.5 -72t-192 -196.5t-69.5 -274.5q0 -151 69 -275t191.5 -195.5t272.5 -71.5q216 0 366 127v-205q-164 -96 -366 -96q-201 0 -365.5 93.5t-258 257.5t-93.5 365z" />
<glyph unicode="D" horiz-adv-x="1443" d="M180 0v1393h492q205 0 360 -89t237.5 -247t82.5 -361t-82.5 -360.5t-237.5 -246.5t-360 -89h-492zM356 168h314q229 0 364 147.5t135 380.5q0 232 -135 380.5t-364 148.5h-314v-1057z" />
<glyph unicode="E" horiz-adv-x="1062" d="M180 0v1393h750v-168h-574v-441h533v-168h-533v-448h574v-168h-750z" />
<glyph unicode="F" horiz-adv-x="1019" d="M180 0v1393h750v-168h-574v-496h533v-168h-533v-561h-176z" />
<glyph unicode="G" horiz-adv-x="1521" d="M86 696q0 151 55 284t151 228t232.5 150t292.5 55q225 0 379 -82v-194q-168 102 -379 102q-156 0 -281.5 -71t-195.5 -195t-70 -277q0 -147 65 -270.5t183.5 -197.5t265.5 -74q109 0 201 36.5t154.5 99t97.5 146.5t35 178q0 40 -4 68h-494v160h672q16 -75 16 -183 q0 -141 -46.5 -264.5t-132.5 -215.5t-216 -145.5t-287 -53.5q-197 0 -356.5 94.5t-248.5 258.5t-89 363z" />
<glyph unicode="H" horiz-adv-x="1509" d="M180 0v1393h176v-609h797v609h176v-1393h-176v616h-797v-616h-176z" />
<glyph unicode="I" horiz-adv-x="538" d="M180 0v1393h176v-1393h-176z" />
<glyph unicode="J" horiz-adv-x="901" d="M45 68v200q123 -116 266 -116q113 0 179.5 68.5t66.5 199.5v973h176v-977q0 -213 -101.5 -324.5t-299.5 -111.5q-84 0 -164 26.5t-123 61.5z" />
<glyph unicode="K" horiz-adv-x="1128" d="M180 0v1393h176v-682l521 682h210l-430 -570l451 -823h-209l-364 676l-179 -223v-453h-176z" />
<glyph unicode="L" horiz-adv-x="964" d="M180 0v1393h176v-1225h574v-168h-750z" />
<glyph unicode="M" horiz-adv-x="1771" d="M180 0v1393h209l498 -1170l495 1170h207v-1393h-176v1059l-448 -1059h-158l-451 1059v-1059h-176z" />
<glyph unicode="N" horiz-adv-x="1462" d="M92 1378v15h213l799 -1090v1090h176v-1393h-176l-739 999v-999h-177v1235z" />
<glyph unicode="O" horiz-adv-x="1607" d="M86 696q0 151 55 284t150 228t228 150t284 55t284 -55t228 -150t150 -228t55 -284q0 -201 -93.5 -365t-258 -257.5t-365.5 -93.5t-365.5 93.5t-258 257.5t-93.5 365zM270 696q0 -150 69.5 -274.5t192 -196t271.5 -71.5q150 0 272.5 71.5t192 195.5t69.5 275 q0 150 -69.5 274.5t-192 196.5t-272.5 72q-149 0 -271.5 -72t-192 -196.5t-69.5 -274.5z" />
<glyph unicode="P" horiz-adv-x="1105" d="M180 0v1393h410q198 0 318 -112t120 -306q0 -195 -120 -306.5t-318 -111.5h-234v-557h-176zM356 725h234q115 0 185.5 63t70.5 185q0 123 -71 187.5t-185 64.5h-234v-500z" />
<glyph unicode="Q" horiz-adv-x="1634" d="M86 696q0 151 55 284t150 228t228 150t284 55t284 -55t228 -150t150 -228t55 -284q0 -264 -162 -460l151 -150l-120 -123l-158 156q-185 -139 -428 -139q-201 0 -365.5 93.5t-258 257.5t-93.5 365zM270 696q0 -150 69.5 -274.5t192 -196t271.5 -71.5q168 0 293 98 l-287 291l121 123l293 -297q114 139 114 327q0 150 -69.5 274.5t-192 196.5t-272.5 72q-149 0 -271.5 -72t-192 -196.5t-69.5 -274.5z" />
<glyph unicode="R" horiz-adv-x="1175" d="M180 0v1393h412q198 0 318 -105t120 -287q0 -144 -79 -234.5t-208 -121.5q127 -60 225.5 -231t135.5 -414h-182q-47 258 -165 420t-255 162h-146v-582h-176zM356 750h236q113 0 184.5 62t71.5 173t-72 175.5t-184 64.5h-236v-475z" />
<glyph unicode="S" horiz-adv-x="983" d="M102 1049q0 55 15 106.5t48.5 98.5t83 82t124.5 56t166 21q168 0 299 -76v-198q-62 48 -141 78t-162 30q-113 0 -178.5 -53t-65.5 -141q0 -104 129 -185l242 -151q127 -81 181 -165t54 -194q0 -76 -28 -143.5t-81 -120t-138.5 -83.5t-192.5 -31q-180 0 -342 83v207 q152 -125 338 -125q121 0 189.5 59.5t68.5 145.5q0 111 -152 205l-240 152q-117 72 -167 153.5t-50 188.5z" />
<glyph unicode="T" horiz-adv-x="991" d="M37 1225v168h917v-168h-368v-1225h-176v1225h-373z" />
<glyph unicode="U" horiz-adv-x="1341" d="M166 498v895h176v-908q0 -150 90 -241.5t240 -91.5q149 0 238 91.5t89 241.5v908h177v-895q0 -238 -136 -378t-368 -140q-233 0 -369.5 140t-136.5 378z" />
<glyph unicode="V" horiz-adv-x="1292" d="M23 1393h198l424 -1184l426 1184h199l-525 -1393h-198z" />
<glyph unicode="W" horiz-adv-x="1984" d="M39 1393h197l317 -1166l375 1018l-47 148h182l371 -1166l315 1166h197l-402 -1393h-198l-332 1008l-375 -1008h-197z" />
<glyph unicode="X" horiz-adv-x="1187" d="M18 0l455 713l-434 680h213l342 -543l342 543h213l-434 -680l454 -713h-211l-364 575l-363 -575h-213z" />
<glyph unicode="Y" horiz-adv-x="1153" d="M27 1393h200l348 -600l351 600h202l-464 -779v-614h-177v616z" />
<glyph unicode="Z" horiz-adv-x="987" d="M72 0v152l614 1073h-594v168h813v-152l-622 -1073h622v-168h-833z" />
<glyph unicode="[" horiz-adv-x="563" d="M158 -420v1833h360v-115h-237v-1603h237v-115h-360z" />
<glyph unicode="\" horiz-adv-x="864" d="M55 1393h135l619 -1393h-133z" />
<glyph unicode="]" horiz-adv-x="563" d="M45 -305h238v1603h-238v115h361v-1833h-361v115z" />
<glyph unicode="^" horiz-adv-x="931" d="M98 1102l369 336l369 -336l-88 -101l-283 261l-281 -261z" />
<glyph unicode="_" horiz-adv-x="1069" d="M125 -61h819v-115h-819v115z" />
<glyph unicode="`" horiz-adv-x="1228" d="M453 1425h151l156 -301h-135z" />
<glyph unicode="a" horiz-adv-x="972" d="M61 311q0 139 99.5 233.5t251.5 94.5q78 0 149.5 -34t110.5 -83v115q0 113 -67 169t-165 56q-136 0 -270 -82v168q140 70 287 70q177 0 281 -95t104 -288v-635h-170v109q-41 -60 -109 -94.5t-153 -34.5q-159 0 -254 95.5t-95 235.5zM231 311q0 -84 65 -142t155 -58 q91 0 155 58t64 142q0 81 -65.5 139t-153.5 58q-91 0 -155.5 -57.5t-64.5 -139.5z" />
<glyph unicode="b" horiz-adv-x="1261" d="M141 0v1413h170v-616q55 102 154.5 161.5t224.5 59.5q212 0 353 -149t141 -369q0 -222 -140.5 -371t-353.5 -149q-125 0 -224.5 58.5t-154.5 160.5v-199h-170zM311 500q0 -149 100 -251t248 -102q147 0 247 102.5t100 250.5q0 146 -100 248t-247 102q-148 0 -248 -102 t-100 -248z" />
<glyph unicode="c" horiz-adv-x="944" d="M78 500q0 221 148 369.5t374 148.5q66 0 135.5 -18.5t122.5 -49.5v-188q-110 88 -258 88t-248 -101.5t-100 -248.5q0 -149 100 -252t248 -103q73 0 141 24t117 64v-184q-112 -69 -258 -69q-226 0 -374 149t-148 371z" />
<glyph unicode="d" horiz-adv-x="1261" d="M78 500q0 144 63 262.5t176.5 187t255.5 68.5q123 0 221.5 -59.5t153.5 -161.5v616h172v-1413h-172v199q-55 -102 -153 -160.5t-222 -58.5q-215 0 -355 148.5t-140 371.5zM254 500q0 -148 100.5 -250.5t247.5 -102.5q148 0 247 102t99 251q0 146 -99 248t-247 102 q-147 0 -247.5 -102t-100.5 -248z" />
<glyph unicode="e" horiz-adv-x="1118" d="M78 500q0 144 64.5 262.5t178.5 187t254 68.5t251 -65.5t171 -177t60 -247.5q0 -52 -8 -92h-799q15 -133 111.5 -217t236.5 -84q97 0 193.5 36t164.5 89v-176q-163 -104 -370 -104q-218 0 -363 147t-145 373zM250 571h641q-1 133 -92 216t-224 83q-132 0 -224 -86 t-101 -213z" />
<glyph unicode="f" horiz-adv-x="655" d="M51 850v147h156v125q0 148 83.5 230t229.5 82q66 0 119 -17v-174q-46 23 -115 23q-72 0 -109.5 -40.5t-37.5 -113.5v-115h250v-147h-250v-850h-170v850h-156z" />
<glyph unicode="g" horiz-adv-x="1253" d="M78 512q0 215 138.5 360.5t346.5 145.5q125 0 222.5 -58t152.5 -159v196h170v-921q0 -240 -141.5 -378t-376.5 -138q-102 0 -195 25.5t-155 60.5v184q64 -46 160 -77.5t192 -31.5q151 0 248.5 93t97.5 241v162q-56 -96 -153.5 -152.5t-221.5 -56.5q-209 0 -347 144 t-138 360zM260 512q0 -143 96 -240.5t238 -97.5q145 0 240.5 97t95.5 241q0 142 -95.5 239t-240.5 97q-142 0 -238 -97t-96 -239z" />
<glyph unicode="h" horiz-adv-x="1116" d="M141 0v1413h170v-573q43 83 119 130.5t180 47.5q169 0 272 -111t103 -284v-623h-170v582q0 120 -68 194t-184 74q-114 0 -180.5 -69.5t-71.5 -186.5v-594h-170z" />
<glyph unicode="i" horiz-adv-x="452" d="M115 1311q0 47 32 79.5t78 32.5q50 0 82.5 -32t32.5 -80t-32 -79.5t-83 -31.5q-46 0 -78 32t-32 79zM141 0v997h170v-997h-170z" />
<glyph unicode="j" horiz-adv-x="452" d="M-49 -246q46 -26 88 -26q102 0 102 125v1144h170v-1147q0 -146 -69.5 -218t-190.5 -72q-60 0 -100 20v174zM115 1311q0 47 32.5 79.5t79.5 32.5q49 0 81 -32t32 -80t-32 -79.5t-81 -31.5q-47 0 -79.5 32t-32.5 79z" />
<glyph unicode="k" horiz-adv-x="948" d="M141 0v1413h170v-891l402 475h205l-332 -399l340 -598h-201l-266 477l-148 -172v-305h-170z" />
<glyph unicode="l" horiz-adv-x="458" d="M143 0v1413h170v-1413h-170z" />
<glyph unicode="m" horiz-adv-x="1695" d="M141 0v997h170v-137q41 74 112 116t165 42q111 0 196.5 -54t124.5 -153q34 97 113 152t192 55q152 0 251.5 -102t99.5 -271v-645h-170v604q0 117 -62.5 181.5t-165.5 64.5q-102 0 -165.5 -65t-63.5 -181v-604h-170v604q0 117 -62 181.5t-163 64.5q-102 0 -165 -61 t-67 -171v-618h-170z" />
<glyph unicode="n" horiz-adv-x="1116" d="M141 0v997h170v-157q43 83 118.5 130.5t180.5 47.5q169 0 272 -111t103 -284v-623h-170v582q0 120 -68 194t-184 74q-114 0 -180.5 -69.5t-71.5 -186.5v-594h-170z" />
<glyph unicode="o" horiz-adv-x="1189" d="M76 500q0 218 150 368t368 150q145 0 264 -68.5t186.5 -187t67.5 -262.5q0 -221 -148.5 -370.5t-369.5 -149.5q-144 0 -262.5 68t-187 187.5t-68.5 264.5zM252 500q0 -149 98.5 -252t243.5 -103q147 0 245.5 103t98.5 252q0 147 -98.5 248.5t-245.5 101.5 q-145 0 -243.5 -101.5t-98.5 -248.5z" />
<glyph unicode="p" horiz-adv-x="1261" d="M141 -420v1417h170v-209q55 108 153.5 169t225.5 61q212 0 353 -149t141 -369q0 -222 -141 -371t-355 -149q-125 0 -223.5 58.5t-153.5 160.5v-619h-170zM311 500q0 -149 100 -251t248 -102q147 0 247 102.5t100 250.5q0 146 -100 248t-247 102q-148 0 -248 -102 t-100 -248z" />
<glyph unicode="q" horiz-adv-x="1263" d="M78 500q0 144 63.5 262.5t177 187t254.5 68.5q123 0 221.5 -59.5t153.5 -161.5v200h172v-1417h-172v619q-55 -102 -153 -160.5t-222 -58.5q-214 0 -354.5 149t-140.5 371zM254 500q0 -148 100.5 -250.5t247.5 -102.5q148 0 247 102t99 251q0 146 -99 248t-247 102 q-147 0 -247.5 -102t-100.5 -248z" />
<glyph unicode="r" horiz-adv-x="686" d="M141 0v997h170v-135q80 156 258 156q39 0 84 -10v-183q-59 25 -121 25q-104 0 -160 -68.5t-61 -187.5v-594h-170z" />
<glyph unicode="s" horiz-adv-x="782" d="M92 743q0 121 89.5 198t248.5 77q129 0 229 -51v-181q-107 80 -227 80q-77 0 -119.5 -35.5t-42.5 -91.5q0 -38 20 -63t68 -55l177 -105q92 -55 129.5 -118.5t37.5 -139.5q0 -128 -92 -203t-250 -75q-142 0 -258 59v184q43 -38 111 -66t139 -28q83 0 128.5 35.5t45.5 93.5 q0 39 -23 70.5t-79 64.5l-184 111q-148 87 -148 239z" />
<glyph unicode="t" horiz-adv-x="614" d="M35 850v147h194v244l162 43v-287h197v-147h-197v-850h-170v850h-186z" />
<glyph unicode="u" horiz-adv-x="1122" d="M135 375v622h170v-583q0 -121 66.5 -195t183.5 -74q113 0 179 69t71 185v598h172v-997h-172v156q-40 -82 -115.5 -129t-181.5 -47q-168 0 -270.5 110.5t-102.5 284.5z" />
<glyph unicode="v" horiz-adv-x="1032" d="M29 997h180l307 -788l309 788h181l-400 -997h-180z" />
<glyph unicode="w" horiz-adv-x="1579" d="M41 997h178l230 -784l241 659l-49 125h174l315 -784l230 784h178l-307 -997h-180l-277 676l-246 -676h-182z" />
<glyph unicode="x" horiz-adv-x="937" d="M25 0l340 500l-340 497h200l244 -368l244 368h200l-338 -497l338 -500h-200l-244 369l-244 -369h-200z" />
<glyph unicode="y" horiz-adv-x="1019" d="M31 997h194l285 -706l293 706h194l-608 -1417h-196l223 496z" />
<glyph unicode="z" horiz-adv-x="808" d="M72 0v143l450 707h-430v147h637v-143l-457 -707h457v-147h-657z" />
<glyph unicode="{" horiz-adv-x="618" d="M12 440v113h62q166 0 166 199v362q0 165 64 232t194 67h75v-110h-55q-77 0 -116.5 -43t-39.5 -154v-375q0 -195 -143 -235q143 -40 143 -236v-371q0 -113 39.5 -155.5t116.5 -42.5h55v-111h-73q-131 0 -195.5 68t-64.5 235v357q0 200 -166 200h-62z" />
<glyph unicode="|" horiz-adv-x="440" d="M158 -420v1833h123v-1833h-123z" />
<glyph unicode="}" horiz-adv-x="618" d="M45 -309h55q77 0 116.5 42.5t39.5 153.5v375q0 196 143 236q-143 40 -143 235v371q0 113 -39.5 156t-116.5 43h-55v110h74q131 0 195.5 -68t64.5 -235v-356q0 -201 166 -201h61v-113h-61q-166 0 -166 -198v-363q0 -165 -64 -232t-194 -67h-76v111z" />
<glyph unicode="~" d="M78 496v143q42 35 101.5 56.5t117.5 21.5q56 0 123 -21t119.5 -45.5t118.5 -45.5t120 -21q59 0 114.5 24t94.5 64v-146q-91 -77 -217 -77q-58 0 -126.5 21t-121.5 45.5t-118 45.5t-117 21q-57 0 -112.5 -24t-96.5 -62z" />
<glyph unicode="&#xa1;" horiz-adv-x="471" d="M104 887q0 57 38 94t94 37q57 0 94 -37t37 -94q0 -56 -37 -93.5t-94 -37.5q-56 0 -94 38t-38 93zM139 -395l33 952h127l33 -952h-193z" />
<glyph unicode="&#xa2;" d="M129 709q0 203 127 347t328 167v190h123v-190q121 -13 202 -62v-188q-87 68 -202 82v-697q121 15 202 84v-184q-87 -56 -202 -68v-190h-123v193q-200 23 -327.5 168t-127.5 348zM303 709q0 -130 79 -227t202 -120v691q-123 -23 -202 -119t-79 -225z" />
<glyph unicode="&#xa3;" d="M86 598v123h176q-47 177 -47 289q0 178 111 290.5t305 112.5q195 0 303 -74v-206q-47 42 -127.5 74t-163.5 32q-115 0 -181.5 -66t-66.5 -172q0 -91 56 -280h389v-123h-353q33 -132 33 -211q0 -65 -29.5 -124.5t-74.5 -94.5h518v-168h-750v150q60 33 101 94t41 133 q0 78 -31 221h-209z" />
<glyph unicode="&#xa4;" horiz-adv-x="1009" d="M109 868l100 99l98 -103q85 66 197 66q109 0 196 -62l97 97l96 -95l-96 -98q57 -85 57 -190q0 -110 -59 -193l102 -104l-100 -99l-109 103q-77 -53 -184 -53q-110 0 -191 59l-102 -102l-96 94l102 104q-55 82 -55 191q0 100 47 180zM307 582q0 -85 56 -146t141 -61 q89 0 146 61t57 146q0 87 -57 148t-146 61q-85 0 -141 -61.5t-56 -147.5z" />
<glyph unicode="&#xa5;" d="M20 1393h201l311 -600l314 600h203l-371 -672h254v-123h-311v-176h311v-121h-311v-301h-177v301h-315v121h315v176h-315v123h258z" />
<glyph unicode="&#xa6;" horiz-adv-x="456" d="M166 221h123v-641h-123v641zM166 807v606h123v-606h-123z" />
<glyph unicode="&#xa7;" horiz-adv-x="1013" d="M117 623q0 150 135 231q-135 96 -135 248q0 60 24.5 114t73.5 99t133 71.5t193 26.5q168 0 313 -86v-194q-161 112 -315 112q-106 0 -170 -39t-64 -108q0 -80 129 -144l256 -125q120 -56 170.5 -126.5t50.5 -165.5q0 -68 -34 -128t-95 -100q129 -95 129 -252 q0 -62 -27.5 -118.5t-79.5 -101t-135 -71t-186 -26.5q-190 0 -354 92v203q171 -127 348 -127q115 0 181.5 44t66.5 109q0 85 -143 158l-260 129q-205 97 -205 275zM297 641q0 -44 33.5 -80.5t105.5 -73.5l199 -106q98 52 98 139q0 88 -162 168l-170 92q-104 -46 -104 -139z " />
<glyph unicode="&#xa8;" horiz-adv-x="1187" d="M295 1298q0 45 30 76t74 31q45 0 75 -31t30 -76q0 -44 -30 -74t-75 -30q-44 0 -74 30t-30 74zM684 1298q0 44 29.5 75.5t72.5 31.5q47 0 77 -31t30 -76t-30 -74.5t-77 -29.5q-43 0 -72.5 30t-29.5 74z" />
<glyph unicode="&#xa9;" horiz-adv-x="1662" d="M94 702q0 212 99.5 381.5t268 262t372.5 92.5t372 -92.5t266.5 -262t98.5 -381.5q0 -159 -58 -297.5t-156.5 -235t-234.5 -151.5t-288 -55t-288 55.5t-236 151.5t-158 234.5t-58 297.5zM211 702q0 -184 83 -328t224.5 -221t315.5 -77q173 0 313 77t222.5 221t82.5 328 t-82.5 327.5t-222.5 219.5t-313 76q-130 0 -244 -45t-198 -125t-132.5 -197.5t-48.5 -255.5zM434 696q0 174 124 293t306 119q112 0 209 -51v-152q-89 72 -209 72q-125 0 -210 -81.5t-85 -199.5q0 -117 84.5 -197.5t210.5 -80.5q123 0 209 69v-151q-93 -49 -209 -49 q-183 0 -306.5 118t-123.5 291z" />
<glyph unicode="&#xaa;" horiz-adv-x="698" d="M76 827q0 88 64.5 145.5t162.5 57.5q52 0 96 -18t66 -47v61q0 133 -141 133q-93 0 -185 -57v129q100 49 205 49q118 0 187 -63t69 -193v-393h-135v63q-20 -35 -65.5 -56.5t-102.5 -21.5q-100 0 -160.5 61.5t-60.5 149.5zM127 387v123h455v-123h-455zM215 827 q0 -46 35 -78t86 -32q52 0 87.5 32t35.5 78t-35.5 78.5t-87.5 32.5q-51 0 -86 -32.5t-35 -78.5z" />
<glyph unicode="&#xab;" horiz-adv-x="974" d="M80 584l332 438l92 -72l-248 -368l248 -367l-92 -70zM457 584l331 438l93 -72l-248 -368l248 -367l-93 -70z" />
<glyph unicode="&#xac;" d="M70 702v136h911v-529h-141v393h-770z" />
<glyph unicode="&#xad;" horiz-adv-x="770" d="M125 504v160h518v-160h-518z" />
<glyph unicode="&#xae;" horiz-adv-x="1222" d="M94 1053q0 149 69.5 268t187.5 183.5t261 64.5q144 0 262 -64.5t187 -183.5t69 -268q0 -148 -69 -267.5t-187.5 -185t-261.5 -65.5q-218 0 -368 147t-150 371zM180 1053q0 -195 123 -316t309 -121t309 121t123 316q0 194 -123 314t-309 120t-309 -120t-123 -314zM432 776 v559h186q86 0 138.5 -41.5t52.5 -115.5q0 -59 -34 -97t-87 -49q56 -25 96 -93.5t52 -162.5h-99q-19 99 -63 159t-99 60h-47v-219h-96zM528 1090h90q40 0 65.5 19.5t25.5 55.5t-26 57t-65 21h-90v-153z" />
<glyph unicode="&#xaf;" horiz-adv-x="1187" d="M307 1221v118h572v-118h-572z" />
<glyph unicode="&#xb0;" horiz-adv-x="794" d="M82 1090q0 131 88.5 225t224.5 94q139 0 229.5 -94t90.5 -225q0 -129 -90.5 -223.5t-229.5 -94.5q-136 0 -224.5 94.5t-88.5 223.5zM195 1090q0 -87 56.5 -149t143.5 -62q90 0 147.5 62t57.5 149t-57.5 148.5t-147.5 61.5q-87 0 -143.5 -61.5t-56.5 -148.5z" />
<glyph unicode="&#xb1;" d="M76 96v135h911v-135h-911zM76 791v135h381v391h145v-391h385v-135h-385v-361h-145v361h-381z" />
<glyph unicode="&#xb2;" horiz-adv-x="600" d="M59 848v115l258 301q82 92 82 159q0 55 -36.5 88t-98.5 33q-103 0 -188 -78v146q85 61 198 61q123 0 190.5 -64.5t67.5 -162.5q0 -74 -26.5 -126.5t-75.5 -109.5l-203 -235h299v-127h-467z" />
<glyph unicode="&#xb3;" horiz-adv-x="600" d="M72 872v154q77 -59 180 -59q66 0 110 33.5t44 86.5t-41 86t-105 33h-125v127h125q51 0 86 30t35 75q0 47 -36 75.5t-95 28.5q-106 0 -168 -47v145q68 33 170 33q117 0 190.5 -62.5t73.5 -156.5q0 -128 -106 -182q59 -24 94 -76.5t35 -124.5q0 -102 -79.5 -168.5 t-201.5 -66.5q-104 0 -186 36z" />
<glyph unicode="&#xb4;" horiz-adv-x="1187" d="M440 1124l156 301h152l-175 -301h-133z" />
<glyph unicode="&#xb5;" horiz-adv-x="1157" d="M154 -420v1417h170v-583q0 -121 66.5 -195t182.5 -74q113 0 179 69t71 185v598h172v-997h-172v156q-40 -82 -115.5 -129t-181.5 -47q-135 0 -202 100v-500h-170z" />
<glyph unicode="&#xb6;" horiz-adv-x="1050" d="M55 686q0 144 87 227.5t264 83.5h194v-1417h-133v801h-61q-177 0 -264 81t-87 224zM756 -420v1417h131v-1417h-131z" />
<glyph unicode="&#xb7;" horiz-adv-x="491" d="M115 586q0 57 37 94t94 37q56 0 93.5 -37t37.5 -94q0 -55 -37.5 -92t-93.5 -37q-57 0 -94 36.5t-37 92.5z" />
<glyph unicode="&#xb8;" horiz-adv-x="1187" d="M455 -311l127 327h151l-110 -327h-168z" />
<glyph unicode="&#xb9;" horiz-adv-x="600" d="M53 848v125h211v563h-184v125h315v-688h180v-125h-522z" />
<glyph unicode="&#xba;" horiz-adv-x="755" d="M43 950q0 139 96.5 234.5t237.5 95.5t237.5 -95.5t96.5 -234.5q0 -141 -96.5 -236.5t-237.5 -95.5t-237.5 95.5t-96.5 236.5zM152 387v123h454v-123h-454zM178 950q0 -85 57.5 -143.5t141.5 -58.5t141 58.5t57 143.5q0 84 -57 142.5t-141 58.5t-141.5 -58.5t-57.5 -142.5 z" />
<glyph unicode="&#xbb;" horiz-adv-x="976" d="M94 215l248 369l-248 366l92 70l332 -438l-332 -439zM475 215l248 369l-248 366l92 70l332 -438l-332 -439z" />
<glyph unicode="&#xbc;" horiz-adv-x="1628" d="M88 580v125h211v563h-184v125h315v-688h180v-125h-522zM483 0l619 1393h135l-621 -1393h-133zM936 168v113l387 532h131v-518h113v-127h-113v-168h-131v168h-387zM1075 295h248v336z" />
<glyph unicode="&#xbd;" horiz-adv-x="1622" d="M86 580v125h211v563h-184v125h315v-688h180v-125h-522zM481 0l619 1393h135l-621 -1393h-133zM1065 0v115l258 301q82 92 82 159q0 55 -36.5 88t-98.5 33q-104 0 -189 -78v146q85 61 199 61q123 0 190.5 -64.5t67.5 -162.5q0 -74 -26.5 -126.5t-75.5 -109.5l-203 -235 h299v-127h-467z" />
<glyph unicode="&#xbe;" horiz-adv-x="1583" d="M98 604v154q78 -60 181 -60q65 0 109 34t44 87t-40.5 86t-104.5 33h-125v127h125q52 0 86.5 29.5t34.5 74.5q0 47 -36.5 76t-95.5 29q-105 0 -167 -47v145q68 33 170 33q117 0 190.5 -62.5t73.5 -156.5q0 -64 -29 -110.5t-78 -71.5q59 -24 94 -76.5t35 -124.5 q0 -103 -79 -169.5t-201 -66.5q-103 0 -187 37zM438 0l619 1393h135l-621 -1393h-133zM891 168v113l387 532h131v-518h113v-127h-113v-168h-131v168h-387zM1030 295h248v336z" />
<glyph unicode="&#xbf;" horiz-adv-x="849" d="M66 -47q0 97 33.5 167.5t99.5 133.5l114 106q47 45 70 89t23 108h176q0 -102 -28 -161t-99 -120l-115 -104q-53 -47 -72.5 -95t-19.5 -112q0 -89 62.5 -147t191.5 -58q68 0 145 31t131 82v-215q-127 -74 -291 -74q-110 0 -194 32t-132 85.5t-71.5 117t-23.5 134.5z M365 887q0 57 37 94t94 37q56 0 92.5 -37t36.5 -94q0 -56 -37 -93.5t-92 -37.5q-57 0 -94 37.5t-37 93.5z" />
<glyph unicode="&#xc0;" horiz-adv-x="1292" d="M23 0l524 1393h198l525 -1393h-199l-145 389h-564l-141 -389h-198zM403 1790h152l156 -301h-136zM422 559h446l-223 602z" />
<glyph unicode="&#xc1;" horiz-adv-x="1292" d="M23 0l524 1393h198l525 -1393h-199l-145 389h-564l-141 -389h-198zM422 559h446l-223 602zM592 1489l156 301h151l-174 -301h-133z" />
<glyph unicode="&#xc2;" horiz-adv-x="1292" d="M23 0l524 1393h198l525 -1393h-199l-145 389h-564l-141 -389h-198zM360 1489l201 301h174l201 -301h-137l-150 217l-151 -217h-138zM422 559h446l-223 602z" />
<glyph unicode="&#xc3;" horiz-adv-x="1292" d="M23 0l524 1393h198l525 -1393h-199l-145 389h-564l-141 -389h-198zM362 1565v129q52 -52 138 -52q48 0 134.5 38t153.5 38q72 0 144 -45v-131q-30 24 -70.5 39.5t-73.5 15.5q-45 0 -136 -38.5t-152 -38.5q-41 0 -79.5 14t-58.5 31zM422 559h446l-223 602z" />
<glyph unicode="&#xc4;" horiz-adv-x="1292" d="M23 0l524 1393h198l525 -1393h-199l-145 389h-564l-141 -389h-198zM346 1663q0 44 30.5 75t74.5 31q45 0 74.5 -30.5t29.5 -75.5t-29.5 -74.5t-74.5 -29.5q-44 0 -74.5 30t-30.5 74zM422 559h446l-223 602zM735 1663q0 44 30 75t73 31q47 0 76.5 -30.5t29.5 -75.5 t-29.5 -74.5t-76.5 -29.5q-43 0 -73 30t-30 74z" />
<glyph unicode="&#xc5;" horiz-adv-x="1292" d="M23 0l524 1393h198l525 -1393h-199l-145 389h-564l-141 -389h-198zM422 559h446l-223 602zM438 1659q0 84 56.5 140t148.5 56q96 0 153.5 -56t57.5 -140q0 -82 -58 -139.5t-153 -57.5q-91 0 -148 57.5t-57 139.5zM532 1659q0 -47 30.5 -78t80.5 -31q53 0 84 31t31 78 t-31 77.5t-84 30.5q-50 0 -80.5 -30.5t-30.5 -77.5z" />
<glyph unicode="&#xc6;" horiz-adv-x="1808" d="M-57 0l956 1393h776v-168h-573v-441h532v-168h-532v-448h573v-168h-749v389h-502l-264 -389h-217zM520 559h406v598z" />
<glyph unicode="&#xc7;" horiz-adv-x="1265" d="M86 696q0 151 55 284t150 228t228 150t284 55q202 0 366 -96v-207q-152 129 -366 129q-149 0 -271.5 -72t-192 -196.5t-69.5 -274.5q0 -151 69 -275t191.5 -195.5t272.5 -71.5q216 0 366 127v-205q-155 -90 -338 -96l-98 -291h-168l117 301q-261 40 -428.5 236.5 t-167.5 469.5z" />
<glyph unicode="&#xc8;" horiz-adv-x="1062" d="M180 0v1393h750v-168h-574v-441h533v-168h-533v-448h574v-168h-750zM340 1790h152l155 -301h-135z" />
<glyph unicode="&#xc9;" horiz-adv-x="1062" d="M180 0v1393h750v-168h-574v-441h533v-168h-533v-448h574v-168h-750zM489 1489l156 301h152l-174 -301h-134z" />
<glyph unicode="&#xca;" horiz-adv-x="1062" d="M180 0v1393h750v-168h-574v-441h533v-168h-533v-448h574v-168h-750zM266 1489l201 301h174l201 -301h-137l-150 217l-152 -217h-137z" />
<glyph unicode="&#xcb;" horiz-adv-x="1062" d="M180 0v1393h750v-168h-574v-441h533v-168h-533v-448h574v-168h-750zM258 1663q0 44 30 75t74 31q45 0 75 -30.5t30 -75.5t-29.5 -74.5t-75.5 -29.5q-44 0 -74 30t-30 74zM647 1663q0 44 30 75t73 31q47 0 76.5 -30.5t29.5 -75.5t-29.5 -74.5t-76.5 -29.5q-43 0 -73 30 t-30 74z" />
<glyph unicode="&#xcc;" horiz-adv-x="538" d="M33 1790h151l156 -301h-135zM180 0v1393h176v-1393h-176z" />
<glyph unicode="&#xcd;" horiz-adv-x="538" d="M180 0v1393h176v-1393h-176zM209 1489l156 301h151l-174 -301h-133z" />
<glyph unicode="&#xce;" horiz-adv-x="538" d="M-18 1489l200 301h174l201 -301h-137l-150 217l-151 -217h-137zM180 0v1393h176v-1393h-176z" />
<glyph unicode="&#xcf;" horiz-adv-x="538" d="M-31 1663q0 44 30.5 75t74.5 31q45 0 74.5 -30.5t29.5 -75.5t-29.5 -74.5t-74.5 -29.5q-44 0 -74.5 30t-30.5 74zM180 0v1393h176v-1393h-176zM358 1663q0 44 30 75t73 31q47 0 76.5 -30.5t29.5 -75.5t-29.5 -74.5t-76.5 -29.5q-43 0 -73 30t-30 74z" />
<glyph unicode="&#xd0;" horiz-adv-x="1456" d="M57 639v119h138v635h489q205 0 360.5 -89t238.5 -247t83 -361t-83 -360.5t-238.5 -246.5t-360.5 -89h-489v639h-138zM371 168h311q152 0 267 68.5t175 187.5t60 272q0 232 -136.5 380.5t-365.5 148.5h-311v-467h258v-119h-258v-471z" />
<glyph unicode="&#xd1;" horiz-adv-x="1466" d="M96 1378v15h213l799 -1090v1090h176v-1393h-176l-739 999v-999h-176v1235zM461 1565v129q52 -52 137 -52q48 0 135 38t154 38q71 0 143 -45v-131q-30 24 -70 39.5t-73 15.5q-45 0 -136.5 -38.5t-152.5 -38.5q-41 0 -79 14t-58 31z" />
<glyph unicode="&#xd2;" horiz-adv-x="1607" d="M86 696q0 151 55 284t150 228t228 150t284 55t284 -55t228 -150t150 -228t55 -284q0 -201 -93.5 -365t-258 -257.5t-365.5 -93.5t-365.5 93.5t-258 257.5t-93.5 365zM270 696q0 -150 69.5 -274.5t192 -196t271.5 -71.5q150 0 272.5 71.5t192 195.5t69.5 275 q0 150 -69.5 274.5t-192 196.5t-272.5 72q-149 0 -271.5 -72t-192 -196.5t-69.5 -274.5zM559 1790h152l155 -301h-135z" />
<glyph unicode="&#xd3;" horiz-adv-x="1607" d="M86 696q0 151 55 284t150 228t228 150t284 55t284 -55t228 -150t150 -228t55 -284q0 -201 -93.5 -365t-258 -257.5t-365.5 -93.5t-365.5 93.5t-258 257.5t-93.5 365zM270 696q0 -150 69.5 -274.5t192 -196t271.5 -71.5q150 0 272.5 71.5t192 195.5t69.5 275 q0 150 -69.5 274.5t-192 196.5t-272.5 72q-149 0 -271.5 -72t-192 -196.5t-69.5 -274.5zM735 1489l156 301h151l-174 -301h-133z" />
<glyph unicode="&#xd4;" horiz-adv-x="1607" d="M86 696q0 151 55 284t150 228t228 150t284 55t284 -55t228 -150t150 -228t55 -284q0 -201 -93.5 -365t-258 -257.5t-365.5 -93.5t-365.5 93.5t-258 257.5t-93.5 365zM270 696q0 -150 69.5 -274.5t192 -196t271.5 -71.5q150 0 272.5 71.5t192 195.5t69.5 275 q0 150 -69.5 274.5t-192 196.5t-272.5 72q-149 0 -271.5 -72t-192 -196.5t-69.5 -274.5zM514 1489l201 301h174l201 -301h-138l-149 217l-152 -217h-137z" />
<glyph unicode="&#xd5;" horiz-adv-x="1607" d="M86 696q0 151 55 284t150 228t228 150t284 55t284 -55t228 -150t150 -228t55 -284q0 -201 -93.5 -365t-258 -257.5t-365.5 -93.5t-365.5 93.5t-258 257.5t-93.5 365zM270 696q0 -150 69.5 -274.5t192 -196t271.5 -71.5q150 0 272.5 71.5t192 195.5t69.5 275 q0 150 -69.5 274.5t-192 196.5t-272.5 72q-149 0 -271.5 -72t-192 -196.5t-69.5 -274.5zM518 1565v129q52 -52 137 -52q48 0 135 38t154 38q70 0 143 -45v-131q-30 24 -70 39.5t-73 15.5q-45 0 -136.5 -38.5t-152.5 -38.5q-41 0 -79 14t-58 31z" />
<glyph unicode="&#xd6;" horiz-adv-x="1607" d="M86 696q0 151 55 284t150 228t228 150t284 55t284 -55t228 -150t150 -228t55 -284q0 -201 -93.5 -365t-258 -257.5t-365.5 -93.5t-365.5 93.5t-258 257.5t-93.5 365zM270 696q0 -150 69.5 -274.5t192 -196t271.5 -71.5q150 0 272.5 71.5t192 195.5t69.5 275 q0 150 -69.5 274.5t-192 196.5t-272.5 72q-149 0 -271.5 -72t-192 -196.5t-69.5 -274.5zM504 1663q0 44 30 75t74 31q45 0 75 -30.5t30 -75.5t-29.5 -74.5t-75.5 -29.5q-44 0 -74 30t-30 74zM893 1663q0 44 29.5 75t72.5 31q47 0 77 -30.5t30 -75.5t-30 -74.5t-77 -29.5 q-43 0 -72.5 30t-29.5 74z" />
<glyph unicode="&#xd7;" d="M100 911l105 103l330 -330l327 328l96 -97l-325 -329l330 -330l-103 -104l-332 331l-323 -323l-96 96l323 324z" />
<glyph unicode="&#xd8;" horiz-adv-x="1607" d="M86 696q0 151 55 284t150 228t228 150t284 55q210 0 383 -106l92 129l96 -66l-96 -129q114 -98 178 -239.5t64 -305.5q0 -201 -93.5 -365t-258 -257.5t-365.5 -93.5q-204 0 -377 100l-86 -119l-88 66l84 116q-118 98 -184 242t-66 311zM270 696q0 -121 45.5 -226 t128.5 -179l635 870q-127 78 -276 78t-271.5 -72t-192 -196.5t-69.5 -274.5zM535 227q118 -73 268 -73t272.5 71.5t192 195.5t69.5 275q0 117 -44.5 220t-123.5 176z" />
<glyph unicode="&#xd9;" horiz-adv-x="1341" d="M166 498v895h176v-908q0 -150 90 -241.5t240 -91.5q149 0 238 91.5t89 241.5v908h177v-895q0 -238 -136 -378t-368 -140q-233 0 -369.5 140t-136.5 378zM442 1790h152l156 -301h-136z" />
<glyph unicode="&#xda;" horiz-adv-x="1341" d="M166 498v895h176v-908q0 -150 90 -241.5t240 -91.5q149 0 238 91.5t89 241.5v908h177v-895q0 -238 -136 -378t-368 -140q-233 0 -369.5 140t-136.5 378zM596 1489l156 301h151l-174 -301h-133z" />
<glyph unicode="&#xdb;" horiz-adv-x="1341" d="M166 498v895h176v-908q0 -150 90 -241.5t240 -91.5q149 0 238 91.5t89 241.5v908h177v-895q0 -238 -136 -378t-368 -140q-233 0 -369.5 140t-136.5 378zM383 1489l201 301h174l200 -301h-137l-149 217l-152 -217h-137z" />
<glyph unicode="&#xdc;" horiz-adv-x="1341" d="M166 498v895h176v-908q0 -150 90 -241.5t240 -91.5q149 0 238 91.5t89 241.5v908h177v-895q0 -238 -136 -378t-368 -140q-233 0 -369.5 140t-136.5 378zM371 1663q0 44 30 75t74 31q45 0 75 -30.5t30 -75.5t-30 -74.5t-75 -29.5q-44 0 -74 30t-30 74zM760 1663 q0 44 29.5 75t72.5 31q47 0 77 -30.5t30 -75.5t-30 -74.5t-77 -29.5q-43 0 -72.5 30t-29.5 74z" />
<glyph unicode="&#xdd;" horiz-adv-x="1153" d="M27 1393h200l348 -600l351 600h202l-464 -779v-614h-177v616zM510 1489l156 301h151l-174 -301h-133z" />
<glyph unicode="&#xde;" horiz-adv-x="1075" d="M180 0v1393h176v-258h234q198 0 318 -111.5t120 -306.5q0 -194 -120 -305t-318 -111h-234v-301h-176zM356 467h234q115 0 185.5 63t70.5 187q0 123 -71 187.5t-185 64.5h-234v-502z" />
<glyph unicode="&#xdf;" horiz-adv-x="1093" d="M141 0v989q0 202 104.5 323.5t313.5 121.5q183 0 295.5 -103.5t112.5 -275.5q0 -110 -55.5 -194t-145.5 -122q109 -35 178.5 -125.5t69.5 -207.5q0 -200 -120 -311t-319 -111q-54 0 -126 14l2 164q64 -19 124 -19q118 0 193.5 70t75.5 201q0 117 -78.5 183.5t-192.5 66.5 h-79v147h77q90 0 157 61.5t67 167.5q0 110 -67 171t-167 61q-122 0 -186 -73t-64 -202v-997h-170z" />
<glyph unicode="&#xe0;" horiz-adv-x="972" d="M61 311q0 139 99.5 233.5t251.5 94.5q78 0 149.5 -34t110.5 -83v115q0 113 -67 169t-165 56q-136 0 -270 -82v168q140 70 287 70q177 0 281 -95t104 -288v-635h-170v109q-41 -60 -109 -94.5t-153 -34.5q-159 0 -254 95.5t-95 235.5zM231 311q0 -84 65 -142t155 -58 q91 0 155 58t64 142q0 81 -65.5 139t-153.5 58q-91 0 -155.5 -57.5t-64.5 -139.5zM242 1425h151l156 -301h-135z" />
<glyph unicode="&#xe1;" horiz-adv-x="972" d="M61 311q0 139 99.5 233.5t251.5 94.5q78 0 149.5 -34t110.5 -83v115q0 113 -67 169t-165 56q-136 0 -270 -82v168q140 70 287 70q177 0 281 -95t104 -288v-635h-170v109q-41 -60 -109 -94.5t-153 -34.5q-159 0 -254 95.5t-95 235.5zM231 311q0 -84 65 -142t155 -58 q91 0 155 58t64 142q0 81 -65.5 139t-153.5 58q-91 0 -155.5 -57.5t-64.5 -139.5zM428 1124l156 301h151l-174 -301h-133z" />
<glyph unicode="&#xe2;" horiz-adv-x="972" d="M61 311q0 139 99.5 233.5t251.5 94.5q78 0 149.5 -34t110.5 -83v115q0 113 -67 169t-165 56q-136 0 -270 -82v168q140 70 287 70q177 0 281 -95t104 -288v-635h-170v109q-41 -60 -109 -94.5t-153 -34.5q-159 0 -254 95.5t-95 235.5zM176 1124l201 301h174l201 -301h-138 l-149 217l-152 -217h-137zM231 311q0 -84 65 -142t155 -58q91 0 155 58t64 142q0 81 -65.5 139t-153.5 58q-91 0 -155.5 -57.5t-64.5 -139.5z" />
<glyph unicode="&#xe3;" horiz-adv-x="972" d="M61 311q0 139 99.5 233.5t251.5 94.5q78 0 149.5 -34t110.5 -83v115q0 113 -67 169t-165 56q-136 0 -270 -82v168q140 70 287 70q177 0 281 -95t104 -288v-635h-170v109q-41 -60 -109 -94.5t-153 -34.5q-159 0 -254 95.5t-95 235.5zM182 1200v129q51 -51 137 -51 q48 0 135 38t154 38q72 0 144 -45v-131q-30 24 -70.5 39.5t-73.5 15.5q-45 0 -136.5 -39t-152.5 -39q-41 0 -79 14t-58 31zM231 311q0 -84 65 -142t155 -58q91 0 155 58t64 142q0 81 -65.5 139t-153.5 58q-91 0 -155.5 -57.5t-64.5 -139.5z" />
<glyph unicode="&#xe4;" horiz-adv-x="972" d="M61 311q0 139 99.5 233.5t251.5 94.5q78 0 149.5 -34t110.5 -83v115q0 113 -67 169t-165 56q-136 0 -270 -82v168q140 70 287 70q177 0 281 -95t104 -288v-635h-170v109q-41 -60 -109 -94.5t-153 -34.5q-159 0 -254 95.5t-95 235.5zM168 1298q0 45 30 76t74 31 q45 0 75 -31t30 -76q0 -44 -29.5 -74t-75.5 -30q-44 0 -74 30t-30 74zM231 311q0 -84 65 -142t155 -58q91 0 155 58t64 142q0 81 -65.5 139t-153.5 58q-91 0 -155.5 -57.5t-64.5 -139.5zM557 1298q0 44 29.5 75.5t72.5 31.5q47 0 77 -31t30 -76t-30 -74.5t-77 -29.5 q-43 0 -72.5 30t-29.5 74z" />
<glyph unicode="&#xe5;" horiz-adv-x="972" d="M61 311q0 139 99.5 233.5t251.5 94.5q78 0 149.5 -34t110.5 -83v115q0 113 -67 169t-165 56q-136 0 -270 -82v168q140 70 287 70q177 0 281 -95t104 -288v-635h-170v109q-41 -60 -109 -94.5t-153 -34.5q-159 0 -254 95.5t-95 235.5zM231 311q0 -84 65 -142t155 -58 q91 0 155 58t64 142q0 81 -65.5 139t-153.5 58q-91 0 -155.5 -57.5t-64.5 -139.5zM262 1294q0 84 56.5 140.5t148.5 56.5q96 0 153.5 -56.5t57.5 -140.5q0 -82 -58 -139t-153 -57q-91 0 -148 57t-57 139zM356 1294q0 -47 30.5 -77.5t80.5 -30.5q53 0 84 30.5t31 77.5t-31 78 t-84 31q-50 0 -80.5 -31t-30.5 -78z" />
<glyph unicode="&#xe6;" horiz-adv-x="1742" d="M61 311q0 139 99.5 233.5t251.5 94.5q78 0 149.5 -34t110.5 -83v115q0 113 -67 169t-165 56q-136 0 -270 -82v168q140 70 287 70q127 0 218.5 -54t125.5 -163q64 100 169 158.5t230 58.5q139 0 250 -65.5t171 -177.5t60 -247q0 -52 -10 -90h-797q15 -138 110.5 -220.5 t236.5 -82.5q97 0 193.5 36t164.5 89v-176q-63 -43 -161.5 -73.5t-213.5 -30.5q-146 0 -252 58.5t-161 156.5q-43 -95 -138 -155t-221 -60q-175 0 -273 94.5t-98 236.5zM231 311q0 -84 65 -142t155 -58q91 0 155 58t64 142q0 81 -65.5 139t-153.5 58q-91 0 -155.5 -57.5 t-64.5 -139.5zM872 569h644q-3 133 -93.5 217t-224.5 84q-132 0 -224.5 -87t-101.5 -214z" />
<glyph unicode="&#xe7;" horiz-adv-x="944" d="M78 500q0 221 148 369.5t374 148.5q66 0 135.5 -18.5t122.5 -49.5v-188q-110 88 -258 88t-248 -101.5t-100 -248.5q0 -149 100 -252t248 -103q73 0 141 24t117 64v-184q-89 -57 -223 -67l-98 -293h-168l116 303q-182 35 -294.5 175.5t-112.5 332.5z" />
<glyph unicode="&#xe8;" horiz-adv-x="1118" d="M78 500q0 144 64.5 262.5t178.5 187t254 68.5t251 -65.5t171 -177t60 -247.5q0 -52 -8 -92h-799q15 -133 111.5 -217t236.5 -84q97 0 193.5 36t164.5 89v-176q-163 -104 -370 -104q-218 0 -363 147t-145 373zM250 571h641q-1 133 -92 216t-224 83q-132 0 -224 -86 t-101 -213zM360 1425h152l156 -301h-136z" />
<glyph unicode="&#xe9;" horiz-adv-x="1118" d="M78 500q0 144 64.5 262.5t178.5 187t254 68.5t251 -65.5t171 -177t60 -247.5q0 -52 -8 -92h-799q15 -133 111.5 -217t236.5 -84q97 0 193.5 36t164.5 89v-176q-163 -104 -370 -104q-218 0 -363 147t-145 373zM250 571h641q-1 133 -92 216t-224 83q-132 0 -224 -86 t-101 -213zM516 1124l156 301h151l-174 -301h-133z" />
<glyph unicode="&#xea;" horiz-adv-x="1118" d="M78 500q0 144 64.5 262.5t178.5 187t254 68.5t251 -65.5t171 -177t60 -247.5q0 -52 -8 -92h-799q15 -133 111.5 -217t236.5 -84q97 0 193.5 36t164.5 89v-176q-163 -104 -370 -104q-218 0 -363 147t-145 373zM250 571h641q-1 133 -92 216t-224 83q-132 0 -224 -86 t-101 -213zM307 1124l201 301h174l201 -301h-138l-149 217l-152 -217h-137z" />
<glyph unicode="&#xeb;" horiz-adv-x="1118" d="M78 500q0 144 64.5 262.5t178.5 187t254 68.5t251 -65.5t171 -177t60 -247.5q0 -52 -8 -92h-799q15 -133 111.5 -217t236.5 -84q97 0 193.5 36t164.5 89v-176q-163 -104 -370 -104q-218 0 -363 147t-145 373zM250 571h641q-1 133 -92 216t-224 83q-132 0 -224 -86 t-101 -213zM287 1298q0 45 30 76t74 31q45 0 75 -31t30 -76q0 -44 -30 -74t-75 -30q-44 0 -74 30t-30 74zM676 1298q0 44 29.5 75.5t72.5 31.5q47 0 77 -31t30 -76t-30 -74.5t-77 -29.5q-43 0 -72.5 30t-29.5 74z" />
<glyph unicode="&#xec;" horiz-adv-x="452" d="M-10 1425h151l156 -301h-135zM141 0v997h170v-997h-170z" />
<glyph unicode="&#xed;" horiz-adv-x="452" d="M141 0v997h170v-997h-170zM162 1124l155 301h152l-174 -301h-133z" />
<glyph unicode="&#xee;" horiz-adv-x="452" d="M-61 1124l200 301h174l201 -301h-137l-150 217l-151 -217h-137zM141 0v997h170v-997h-170z" />
<glyph unicode="&#xef;" horiz-adv-x="452" d="M-72 1298q0 44 30.5 75.5t74.5 31.5q45 0 74.5 -31t29.5 -76t-29.5 -74.5t-74.5 -29.5q-44 0 -74.5 30t-30.5 74zM141 0v997h170v-997h-170zM317 1298q0 44 30 75.5t73 31.5q46 0 76 -31t30 -76t-29.5 -74.5t-76.5 -29.5q-43 0 -73 30t-30 74z" />
<glyph unicode="&#xf0;" horiz-adv-x="1126" d="M80 465q0 139 66 250.5t176 172t241 60.5q37 0 74 -6l-119 176l-164 -86l-53 82l162 86l-129 193h211l71 -111l158 86l53 -84l-157 -84l286 -436q95 -143 95 -299q0 -207 -140.5 -346t-347.5 -139q-206 0 -344.5 139t-138.5 346zM260 465q0 -131 87 -220t216 -89 q130 0 218.5 89t88.5 220q0 130 -88.5 219.5t-218.5 89.5q-128 0 -215.5 -89.5t-87.5 -219.5z" />
<glyph unicode="&#xf1;" horiz-adv-x="1116" d="M141 0v997h170v-157q43 83 118.5 130.5t180.5 47.5q169 0 272 -111t103 -284v-623h-170v582q0 120 -68 194t-184 74q-114 0 -180.5 -69.5t-71.5 -186.5v-594h-170zM274 1200v129q51 -51 138 -51q48 0 134.5 38t153.5 38q72 0 144 -45v-131q-30 24 -70.5 39.5t-73.5 15.5 q-45 0 -136 -39t-152 -39q-41 0 -79.5 14t-58.5 31z" />
<glyph unicode="&#xf2;" horiz-adv-x="1189" d="M76 500q0 218 150 368t368 150q145 0 264 -68.5t186.5 -187t67.5 -262.5q0 -221 -148.5 -370.5t-369.5 -149.5q-144 0 -262.5 68t-187 187.5t-68.5 264.5zM252 500q0 -149 98.5 -252t243.5 -103q147 0 245.5 103t98.5 252q0 147 -98.5 248.5t-245.5 101.5 q-145 0 -243.5 -101.5t-98.5 -248.5zM377 1425h151l156 -301h-135z" />
<glyph unicode="&#xf3;" horiz-adv-x="1189" d="M76 500q0 218 150 368t368 150q145 0 264 -68.5t186.5 -187t67.5 -262.5q0 -221 -148.5 -370.5t-369.5 -149.5q-144 0 -262.5 68t-187 187.5t-68.5 264.5zM252 500q0 -149 98.5 -252t243.5 -103q147 0 245.5 103t98.5 252q0 147 -98.5 248.5t-245.5 101.5 q-145 0 -243.5 -101.5t-98.5 -248.5zM539 1124l155 301h152l-174 -301h-133z" />
<glyph unicode="&#xf4;" horiz-adv-x="1189" d="M76 500q0 218 150 368t368 150q145 0 264 -68.5t186.5 -187t67.5 -262.5q0 -221 -148.5 -370.5t-369.5 -149.5q-144 0 -262.5 68t-187 187.5t-68.5 264.5zM252 500q0 -149 98.5 -252t243.5 -103q147 0 245.5 103t98.5 252q0 147 -98.5 248.5t-245.5 101.5 q-145 0 -243.5 -101.5t-98.5 -248.5zM307 1124l201 301h174l201 -301h-138l-149 217l-152 -217h-137z" />
<glyph unicode="&#xf5;" horiz-adv-x="1189" d="M76 500q0 218 150 368t368 150q145 0 264 -68.5t186.5 -187t67.5 -262.5q0 -221 -148.5 -370.5t-369.5 -149.5q-144 0 -262.5 68t-187 187.5t-68.5 264.5zM252 500q0 -149 98.5 -252t243.5 -103q147 0 245.5 103t98.5 252q0 147 -98.5 248.5t-245.5 101.5 q-145 0 -243.5 -101.5t-98.5 -248.5zM311 1200v129q51 -51 138 -51q48 0 134.5 38t153.5 38q71 0 144 -45v-131q-30 24 -70.5 39.5t-73.5 15.5q-45 0 -136 -39t-152 -39q-41 0 -79.5 14t-58.5 31z" />
<glyph unicode="&#xf6;" horiz-adv-x="1189" d="M76 500q0 218 150 368t368 150q145 0 264 -68.5t186.5 -187t67.5 -262.5q0 -221 -148.5 -370.5t-369.5 -149.5q-144 0 -262.5 68t-187 187.5t-68.5 264.5zM252 500q0 -149 98.5 -252t243.5 -103q147 0 245.5 103t98.5 252q0 147 -98.5 248.5t-245.5 101.5 q-145 0 -243.5 -101.5t-98.5 -248.5zM295 1298q0 45 30 76t74 31q45 0 75 -31t30 -76q0 -44 -30 -74t-75 -30q-44 0 -74 30t-30 74zM684 1298q0 44 29.5 75.5t72.5 31.5q47 0 77 -31t30 -76t-30 -74.5t-77 -29.5q-43 0 -72.5 30t-29.5 74z" />
<glyph unicode="&#xf7;" d="M78 516v137h911v-137h-911zM416 197q0 51 35 84.5t88 33.5q52 0 86 -33.5t34 -84.5t-34 -84t-86 -33q-53 0 -88 33t-35 84zM416 969q0 51 35 83.5t88 32.5t86.5 -32.5t33.5 -83.5q0 -52 -33.5 -85.5t-86.5 -33.5t-88 33.5t-35 85.5z" />
<glyph unicode="&#xf8;" horiz-adv-x="1189" d="M76 500q0 218 150 368t368 150q142 0 264 -72l64 86l94 -65l-66 -88q77 -72 119.5 -169.5t42.5 -209.5q0 -221 -148.5 -370.5t-369.5 -149.5q-141 0 -256 65l-59 -84l-89 66l58 79q-80 72 -126 174.5t-46 219.5zM240 500q0 -158 108 -258l416 573q-79 47 -170 47 q-148 0 -251 -106t-103 -256zM436 176q68 -41 158 -41q151 0 252.5 106t101.5 259q0 146 -98 241z" />
<glyph unicode="&#xf9;" horiz-adv-x="1122" d="M135 375v622h170v-583q0 -121 66.5 -195t183.5 -74q113 0 179 69t71 185v598h172v-997h-172v156q-40 -82 -115.5 -129t-181.5 -47q-168 0 -270.5 110.5t-102.5 284.5zM322 1425h151l156 -301h-135z" />
<glyph unicode="&#xfa;" horiz-adv-x="1122" d="M135 375v622h170v-583q0 -121 66.5 -195t183.5 -74q113 0 179 69t71 185v598h172v-997h-172v156q-40 -82 -115.5 -129t-181.5 -47q-168 0 -270.5 110.5t-102.5 284.5zM494 1124l155 301h152l-174 -301h-133z" />
<glyph unicode="&#xfb;" horiz-adv-x="1122" d="M135 375v622h170v-583q0 -121 66.5 -195t183.5 -74q113 0 179 69t71 185v598h172v-997h-172v156q-40 -82 -115.5 -129t-181.5 -47q-168 0 -270.5 110.5t-102.5 284.5zM272 1124l201 301h174l201 -301h-137l-150 217l-151 -217h-138z" />
<glyph unicode="&#xfc;" horiz-adv-x="1122" d="M135 375v622h170v-583q0 -121 66.5 -195t183.5 -74q113 0 179 69t71 185v598h172v-997h-172v156q-40 -82 -115.5 -129t-181.5 -47q-168 0 -270.5 110.5t-102.5 284.5zM262 1298q0 44 30.5 75.5t74.5 31.5q45 0 74.5 -31t29.5 -76t-29.5 -74.5t-74.5 -29.5q-44 0 -74.5 30 t-30.5 74zM651 1298q0 44 30 75.5t73 31.5q46 0 76 -31t30 -76t-29.5 -74.5t-76.5 -29.5q-43 0 -73 30t-30 74z" />
<glyph unicode="&#xfd;" horiz-adv-x="1019" d="M31 997h194l285 -706l293 706h194l-608 -1417h-196l223 496zM457 1124l155 301h152l-174 -301h-133z" />
<glyph unicode="&#xfe;" horiz-adv-x="1263" d="M143 -420v1833h170v-625q55 108 153.5 169t225.5 61q212 0 353 -149t141 -369q0 -222 -141 -371t-355 -149q-125 0 -223.5 58.5t-153.5 160.5v-619h-170zM313 500q0 -148 100 -250.5t249 -102.5q148 0 247 102t99 251q0 146 -99 248t-247 102t-248.5 -102t-100.5 -248z " />
<glyph unicode="&#xff;" horiz-adv-x="1019" d="M31 997h194l285 -706l293 706h194l-608 -1417h-196l223 496zM215 1298q0 45 30 76t74 31q45 0 75 -31t30 -76q0 -44 -30 -74t-75 -30q-44 0 -74 30t-30 74zM604 1298q0 44 30 75.5t73 31.5q46 0 76 -31t30 -76t-29.5 -74.5t-76.5 -29.5q-43 0 -73 30t-30 74z" />
<glyph unicode="&#x152;" horiz-adv-x="2228" d="M86 696q0 151 55 284t150 228t228 150t284 55q175 0 317 -79t226 -214v273h747v-168h-571v-441h530v-168h-530v-448h571v-168h-747v272q-83 -136 -225 -214t-318 -78q-201 0 -365.5 93.5t-258 257.5t-93.5 365zM270 696q0 -150 69.5 -274.5t192 -196t271.5 -71.5 q150 0 272.5 71.5t192 195.5t69.5 275q0 150 -69.5 274.5t-192 196.5t-272.5 72q-149 0 -271.5 -72t-192 -196.5t-69.5 -274.5z" />
<glyph unicode="&#x153;" horiz-adv-x="1988" d="M76 500q0 218 150 368t368 150q142 0 256.5 -69t177.5 -187q58 118 168.5 187t249.5 69t250 -65.5t171 -177.5t60 -247q0 -42 -10 -92h-799q17 -133 112.5 -217t235.5 -84q97 0 194 36t165 89v-176q-159 -104 -371 -104q-141 0 -254 68t-174 185q-61 -117 -177.5 -185 t-254.5 -68q-147 0 -266.5 70t-185.5 189t-66 261zM252 500q0 -149 98.5 -252t243.5 -103q147 0 245.5 103t98.5 252q0 147 -98.5 248.5t-245.5 101.5q-145 0 -243.5 -101.5t-98.5 -248.5zM1118 571h641q-1 133 -91.5 216t-223.5 83q-132 0 -224.5 -86t-101.5 -213z" />
<glyph unicode="&#x178;" horiz-adv-x="1153" d="M27 1393h200l348 -600l351 600h202l-464 -779v-614h-177v616zM279 1663q0 44 30 75t74 31q45 0 74.5 -30.5t29.5 -75.5t-29.5 -74.5t-74.5 -29.5q-44 0 -74 30t-30 74zM668 1663q0 44 29.5 75t72.5 31q47 0 77 -30.5t30 -75.5t-30 -74.5t-77 -29.5q-43 0 -72.5 30 t-29.5 74z" />
<glyph unicode="&#x2c6;" horiz-adv-x="1187" d="M305 1124l201 301h174l201 -301h-138l-149 217l-152 -217h-137z" />
<glyph unicode="&#x2dc;" horiz-adv-x="1187" d="M309 1200v129q51 -51 137 -51q48 0 135 38t154 38q71 0 144 -45v-131q-30 24 -70.5 39.5t-73.5 15.5q-45 0 -136.5 -39t-152.5 -39q-41 0 -79 14t-58 31z" />
<glyph unicode="&#x2000;" horiz-adv-x="927" />
<glyph unicode="&#x2001;" horiz-adv-x="1855" />
<glyph unicode="&#x2002;" horiz-adv-x="927" />
<glyph unicode="&#x2003;" horiz-adv-x="1855" />
<glyph unicode="&#x2004;" horiz-adv-x="618" />
<glyph unicode="&#x2005;" horiz-adv-x="463" />
<glyph unicode="&#x2006;" horiz-adv-x="309" />
<glyph unicode="&#x2007;" horiz-adv-x="309" />
<glyph unicode="&#x2008;" horiz-adv-x="231" />
<glyph unicode="&#x2009;" horiz-adv-x="371" />
<glyph unicode="&#x200a;" horiz-adv-x="103" />
<glyph unicode="&#x2010;" horiz-adv-x="770" d="M125 504v160h518v-160h-518z" />
<glyph unicode="&#x2011;" horiz-adv-x="770" d="M125 504v160h518v-160h-518z" />
<glyph unicode="&#x2012;" horiz-adv-x="770" d="M125 504v160h518v-160h-518z" />
<glyph unicode="&#x2013;" horiz-adv-x="1189" d="M127 508v151h936v-151h-936z" />
<glyph unicode="&#x2014;" horiz-adv-x="1476" d="M127 508v151h1223v-151h-1223z" />
<glyph unicode="&#x2018;" horiz-adv-x="450" d="M96 899l103 494h155l-65 -494h-193z" />
<glyph unicode="&#x2019;" horiz-adv-x="442" d="M109 901l63 492h195l-103 -492h-155z" />
<glyph unicode="&#x201a;" horiz-adv-x="512" d="M119 -266l63 491h195l-103 -491h-155z" />
<glyph unicode="&#x201c;" horiz-adv-x="829" d="M96 899l103 494h155l-65 -494h-193zM475 899l103 494h155l-65 -494h-193z" />
<glyph unicode="&#x201d;" horiz-adv-x="823" d="M109 901l63 492h195l-103 -492h-155zM487 901l64 492h194l-102 -492h-156z" />
<glyph unicode="&#x201e;" horiz-adv-x="890" d="M119 -266l63 491h195l-103 -491h-155zM498 -266l63 491h195l-103 -491h-155z" />
<glyph unicode="&#x2022;" horiz-adv-x="765" d="M156 582q0 95 64.5 157t162.5 62q100 0 163.5 -62t63.5 -157q0 -96 -64 -158t-163 -62q-98 0 -162.5 62.5t-64.5 157.5z" />
<glyph unicode="&#x2026;" horiz-adv-x="1415" d="M111 109q0 57 37 94t94 37q56 0 93.5 -37t37.5 -94q0 -55 -37.5 -92t-93.5 -37q-57 0 -94 36.5t-37 92.5zM578 109q0 57 36.5 94t92.5 37q57 0 94 -37t37 -94q0 -56 -37 -92.5t-94 -36.5q-55 0 -92 37t-37 92zM1042 109q0 57 36.5 94t92.5 37q57 0 95.5 -37t38.5 -94 q0 -55 -38.5 -92t-95.5 -37q-55 0 -92 37t-37 92z" />
<glyph unicode="&#x202f;" horiz-adv-x="371" />
<glyph unicode="&#x2039;" horiz-adv-x="598" d="M80 584l332 438l92 -72l-248 -368l248 -367l-92 -70z" />
<glyph unicode="&#x203a;" horiz-adv-x="598" d="M94 215l248 369l-248 366l92 70l332 -438l-332 -439z" />
<glyph unicode="&#x205f;" horiz-adv-x="463" />
<glyph unicode="&#x20ac;" d="M35 475l31 123h116v176h-145l31 121h114v41q0 211 135 344t347 133q104 0 192.5 -37.5t142.5 -89.5l-53 -178q-40 60 -116.5 96.5t-165.5 36.5q-141 0 -223.5 -85t-82.5 -226v-35h510l-30 -121h-480v-176h426l-30 -123h-396v-16q0 -139 80.5 -223t220.5 -84 q92 0 166.5 37.5t122.5 97.5l66 -152q-63 -73 -154.5 -114t-200.5 -41q-211 0 -344 132t-133 343v20h-147z" />
<glyph unicode="&#x2122;" horiz-adv-x="1595" d="M115 1288v105h477v-105h-186v-583h-109v583h-182zM719 705v688h129l235 -549l236 549h127v-688h-109v485l-204 -485h-99l-207 485v-485h-108z" />
<glyph unicode="&#x25fc;" horiz-adv-x="993" d="M0 0v993h993v-993h-993z" />
</font>
</defs>
</svg>
